<?xml version="1.0" encoding="utf-8"?>
<!-- Generator: Adobe Illustrator 19.1.0, SVG Export Plug-In . SVG Version: 6.00 Build 0)  -->
<svg version="1.1" id="Layer_1" xmlns="http://www.w3.org/2000/svg" xmlns:xlink="http://www.w3.org/1999/xlink" x="0px" y="0px"
	 viewBox="0 0 170.4 170.4" style="enable-background:new 0 0 170.4 170.4;" xml:space="preserve">
<style type="text/css">
	.st0{display:none;}
	.st1{display:inline;}
	.st2{fill:#333333;}
</style>
<g class="st0">
	<path class="st1" d="M108.9,118.8c-34.8,26.1-75.1,14.5-94.3-10.2c-21.1-27-19.1-64.6,4.8-88.5c23.9-23.9,61-26.2,87.8-5.9
		c25.5,19.3,37.4,61.2,10.7,95.8c1.7,1.4,3.7,2.7,5.4,4.3c14.4,14.3,28.8,28.6,43.2,43c1.2,1.2,2.6,2.6,3.1,4.2
		c0.8,2.8,0.5,5.7-2.2,7.5c-2.8,1.9-5.9,1.7-8.4-0.5c-3.2-2.9-6.2-6-9.2-9.1c-12.6-12.6-25.3-25.3-37.9-38
		C110.9,120.7,109.9,119.8,108.9,118.8z M13.5,66.6c-0.1,30.1,23.3,53.9,53.2,53.9c29,0,53.7-24.2,53.2-52.9
		C119.5,35,94.4,13.7,66.9,13.8C37.1,13.8,13.6,36.9,13.5,66.6z"/>
</g>
<g class="st0">
	<path class="st1" d="M66.7,60.6c6.5,0,13,0,19.5,0c4.3,0,7.3,2.7,7.5,6.5c0.2,3.8-2.7,6.8-7.1,6.8c-13.2,0.1-26.5,0.1-39.7,0
		c-4.4,0-7.2-2.9-7-6.8c0.1-3.9,3-6.5,7.4-6.5C53.8,60.5,60.2,60.6,66.7,60.6z"/>
</g>
<g>
	<path class="st2" d="M89.8,39.6v-35c0-2.5-2.1-4.6-4.6-4.6s-4.6,2.1-4.6,4.6v35C71.4,41.7,64.5,50,64.5,59.9s6.9,18.2,16.1,20.3
		c0,0.2,0,0.2,0,0.5v85.2c0,2.5,2.1,4.6,4.6,4.6s4.6-2.1,4.6-4.6V80.6c0-0.2,0-0.5,0-0.5c9.2-2.1,16.1-10.4,16.1-20.3
		S99,41.7,89.8,39.6z M85.2,71.4c-6.4,0-11.5-5.1-11.5-11.5s5.1-11.5,11.5-11.5s11.5,5.1,11.5,11.5S91.7,71.4,85.2,71.4z"/>
	<path class="st2" d="M145.1,123.9c0,0.2,0,0.2,0,0.5v41.5c0,2.5,2.1,4.6,4.6,4.6c2.5,0,4.6-2.1,4.6-4.6v-41.5c0-0.2,0-0.5,0-0.5
		c9.2-2.1,16.1-10.4,16.1-20.3s-6.9-18.2-16.1-20.3V4.6c0-2.5-2.1-4.6-4.6-4.6c-2.5,0-4.6,2.1-4.6,4.6v78.8
		c-9.2,2.1-16.1,10.4-16.1,20.3S135.9,121.8,145.1,123.9z M149.7,92.1c6.4,0,11.5,5.1,11.5,11.5s-5.1,11.5-11.5,11.5
		s-11.5-5.1-11.5-11.5S143.2,92.1,149.7,92.1z"/>
	<path class="st2" d="M25.3,165.8v-41.5c0-0.2,0-0.5,0-0.5c9.2-2.1,16.1-10.4,16.1-20.3s-6.9-18.2-16.1-20.3V4.6
		c0-2.5-2.1-4.6-4.6-4.6s-4.6,2.1-4.6,4.6v78.8C6.9,85.4,0,93.7,0,103.6s6.9,18.2,16.1,20.3c0,0.2,0,0.2,0,0.5v41.5
		c0,2.5,2.1,4.6,4.6,4.6S25.3,168.3,25.3,165.8z M9.2,103.6c0-6.4,5.1-11.5,11.5-11.5s11.5,5.1,11.5,11.5s-5.1,11.5-11.5,11.5
		S9.2,110.1,9.2,103.6z"/>
</g>
</svg>
