<?xml version="1.0" encoding="utf-8"?>
<!-- Generator: Adobe Illustrator 19.1.0, SVG Export Plug-In . SVG Version: 6.00 Build 0)  -->
<svg version="1.1" id="Layer_1" xmlns="http://www.w3.org/2000/svg" xmlns:xlink="http://www.w3.org/1999/xlink" x="0px" y="0px"
	 viewBox="3 29.7 172.3 172.1" style="enable-background:new 3 29.7 172.3 172.1;" xml:space="preserve">
<style type="text/css">
	.st0{fill:#333333;}
	.st1{display:none;}
	.st2{display:inline;}
</style>
<g>
	<path class="st0" d="M112.8,148.8c-34.8,26.1-75.1,14.5-94.3-10.2c-21.1-27-19.1-64.6,4.8-88.5s61-26.2,87.8-5.9
		c25.5,19.3,37.4,61.2,10.7,95.8c1.7,1.4,3.7,2.7,5.4,4.3c14.4,14.3,28.8,28.6,43.2,43c1.2,1.2,2.6,2.6,3.1,4.2
		c0.8,2.8,0.5,5.7-2.2,7.5c-2.8,1.9-5.9,1.7-8.4-0.5c-3.2-2.9-6.2-6-9.2-9.1c-12.6-12.6-25.3-25.3-37.9-38
		C114.9,150.6,113.9,149.8,112.8,148.8z M17.5,96.6c-0.1,30.1,23.3,53.9,53.2,53.9c29,0,53.7-24.2,53.2-52.9
		c-0.5-32.5-25.5-53.8-53.1-53.8C41.1,43.8,17.6,66.9,17.5,96.6z"/>
	<path class="st0" d="M77.3,103.7c0,4.5,0,8.3,0,12.1c-0.1,5-2.7,8.1-6.6,8.1c-4,0-6.6-3.2-6.7-8c0-3.9,0-7.8,0-12.1
		c-4.3,0-8.2,0-12.1,0c-5-0.1-8-2.7-8-6.7c0-4.1,3-6.6,8-6.6c3.9,0,7.8,0,12.1,0c0-4.4-0.1-8.4,0-12.4c0.1-4.7,2.7-7.5,6.7-7.5
		c3.9,0,6.3,2.6,6.6,7.3c0.1,2,0,4.1,0,6.1s0,4,0,6.6c4.1,0,8,0,11.9,0c5,0,8.1,2.5,8.2,6.5c0.1,4.1-3,6.8-8.3,6.8
		C85.4,103.7,81.6,103.7,77.3,103.7z"/>
</g>
<g class="st1">
	<path class="st2" d="M113.9,149.4c-37,27.6-77.6,13.8-96.1-9.9c-21.1-27.1-19.5-64.2,4-89c22.6-23.8,59.8-27.5,86.8-9.3
		c25.9,17.4,43.6,62.1,14.6,99c9.1,9.1,18.2,18.2,27.3,27.2c7.3,7.3,14.6,14.5,21.9,21.8c3.5,3.5,3.9,8.2,1.1,10.9
		c-2.7,2.7-7.1,2.2-10.6-1.3c-15.4-15.4-30.8-30.7-46.1-46.1C115.7,151.8,114.9,150.6,113.9,149.4z M16.7,96.6
		c-0.2,30.6,23.5,54.7,53.9,54.8c29.4,0.1,54.4-24.3,54.1-53.6C124.4,65,99.1,43.2,71,43.1C40.8,43,16.9,66.5,16.7,96.6z"/>
	<path class="st2" d="M70.6,90.4c6.5,0,13.1,0,19.6,0c4.4,0,7.4,2.7,7.6,6.6c0.2,3.8-2.7,6.8-7.1,6.9c-13.3,0.1-26.7,0.1-40,0
		c-4.5,0-7.3-3-7.1-6.9c0.1-3.9,3-6.5,7.5-6.6C57.5,90.4,64,90.4,70.6,90.4z"/>
</g>
</svg>
